<svg width="59" height="59" viewBox="0 0 59 59" fill="none" xmlns="http://www.w3.org/2000/svg">
<path d="M53.4688 9.21875H5.53125C4.51143 9.21875 3.6875 10.0427 3.6875 11.0625V47.9375C3.6875 48.9573 4.51143 49.7812 5.53125 49.7812H53.4688C54.4886 49.7812 55.3125 48.9573 55.3125 47.9375V11.0625C55.3125 10.0427 54.4886 9.21875 53.4688 9.21875ZM51.1641 15.6027V45.6328H7.83594V15.6027L6.2457 14.364L8.51006 11.4543L10.9761 13.3729H48.0297L50.4957 11.4543L52.7601 14.364L51.1641 15.6027ZM48.0297 13.3672L29.5 27.7715L10.9703 13.3672L8.5043 11.4485L6.23994 14.3582L7.83018 15.597L27.5122 30.9001C28.0782 31.3398 28.7746 31.5785 29.4914 31.5785C30.2081 31.5785 30.9045 31.3398 31.4705 30.9001L51.1641 15.6027L52.7543 14.364L50.4899 11.4543L48.0297 13.3672Z" fill="white"/>
</svg>
