<svg width="22" height="22" viewBox="0 0 22 22" fill="none" xmlns="http://www.w3.org/2000/svg">
<path fill-rule="evenodd" clip-rule="evenodd" d="M11 0C4.925 0 0 4.925 0 11C0 17.075 4.925 22 11 22C17.075 22 22 17.075 22 11C22 4.925 17.075 0 11 0ZM9 7.8C9 7.505 9.152 7.234 9.396 7.095C9.51456 7.02679 9.6503 6.99427 9.7869 7.00137C9.9235 7.00847 10.0551 7.05487 10.166 7.135L14.666 10.335C14.7705 10.4114 14.8552 10.5115 14.9133 10.6272C14.9714 10.7428 15.0011 10.8706 15 11C15.0013 11.1296 14.9716 11.2576 14.9136 11.3734C14.8555 11.4892 14.7706 11.5895 14.666 11.666L10.166 14.866C10.0551 14.9461 9.9235 14.9925 9.7869 14.9996C9.6503 15.0067 9.51456 14.9742 9.396 14.906C9.2738 14.8335 9.17287 14.73 9.10335 14.6061C9.03383 14.4822 8.99819 14.3421 9 14.2V7.8Z" fill="#164194"/>
</svg>
