<svg width="73" height="73" viewBox="0 0 73 73" fill="none" xmlns="http://www.w3.org/2000/svg">
<g clip-path="url(#clip0_135_172)">
<path d="M27.375 0.00065625V6.84441C32.4688 6.83432 37.5143 7.83256 42.2205 9.7816C46.9266 11.7306 51.2005 14.5919 54.7957 18.2005C58.4018 21.7974 61.2615 26.0716 63.2103 30.7774C65.1592 35.4832 66.1588 40.5277 66.1517 45.6211H72.9955C72.9955 20.4224 52.5692 -0.00390625 27.3705 -0.00390625L27.375 0.00065625Z" fill="white"/>
<path d="M27.375 13.6875V20.5312C34.0773 20.5312 40.3781 23.141 45.1186 27.8814C49.859 32.6219 52.4688 38.9227 52.4688 45.625H59.3125C59.3125 37.1546 55.9477 29.0312 49.9582 23.0418C43.9688 17.0523 35.8454 13.6875 27.375 13.6875ZM34.2188 27.375L29.6562 31.9375L13.6875 36.5L0 66.1562L1.80675 67.963L18.4051 51.3646C18.1451 50.3945 18.2124 49.3656 18.5967 48.4377C18.9811 47.5097 19.6608 46.7345 20.5306 46.2322C21.4004 45.73 22.4117 45.5288 23.4075 45.6599C24.4033 45.791 25.328 46.247 26.0382 46.9572C26.7484 47.6674 27.2045 48.5921 27.3355 49.5879C27.4666 50.5838 27.2654 51.595 26.7632 52.4648C26.261 53.3346 25.4857 54.0144 24.5578 54.3987C23.6298 54.783 22.601 54.8503 21.6308 54.5903L5.03244 71.1887L6.83919 72.9954L36.4954 59.3079L41.0579 43.3392L45.6204 38.7767L34.2142 27.3704L34.2188 27.375Z" fill="white"/>
</g>
<defs>
<clipPath id="clip0_135_172">
<rect width="73" height="73" fill="white"/>
</clipPath>
</defs>
</svg>
