<svg width="78" height="75" viewBox="0 0 78 75" fill="none" xmlns="http://www.w3.org/2000/svg">
<path d="M35.3925 9.39883C35.2269 9.39474 35.0622 9.42269 34.9081 9.48102C34.754 9.53935 34.6137 9.62686 34.4955 9.73836C34.3772 9.84986 34.2835 9.98307 34.2199 10.1301C34.1562 10.2771 34.124 10.4349 34.125 10.5941V15.2348C34.125 15.891 34.6613 16.4066 35.3438 16.4066V16.4535C50.5294 17.016 62.7413 28.7582 63.3263 43.3598H63.375C63.375 44.016 63.9113 44.5316 64.5938 44.5316H69.42C70.1269 44.5316 70.6875 43.9691 70.6631 43.3129C70.005 24.891 54.5513 10.0316 35.3925 9.39883ZM35.3925 21.1176C35.2276 21.1157 35.0639 21.1452 34.9108 21.2043C34.7577 21.2634 34.6183 21.351 34.5006 21.4621C34.3828 21.5732 34.289 21.7055 34.2246 21.8515C34.1601 21.9975 34.1263 22.1543 34.125 22.3129V26.9535C34.125 27.6098 34.6613 28.1254 35.3438 28.1254V28.1957C43.8019 28.7348 50.5538 35.2269 51.1144 43.3598H51.1875C51.1875 44.016 51.7238 44.5316 52.4063 44.5316H57.2325C57.915 44.5316 58.5 43.9691 58.4756 43.3129C57.8175 31.3598 47.8238 21.7504 35.3925 21.1176ZM13.4063 23.4379C12.7238 23.4379 12.1875 23.9535 12.1875 24.6098V50.391C12.1875 58.7816 19.305 65.6254 28.0313 65.6254C36.7575 65.6254 43.875 58.7816 43.875 50.391C43.875 42.0004 36.7575 35.1566 28.0313 35.1566C27.3488 35.1566 26.8125 35.6723 26.8125 36.3285V43.3598C26.8125 44.016 27.3488 44.5316 28.0313 44.5316C29.6474 44.5316 31.1974 45.149 32.3402 46.2478C33.483 47.3466 34.125 48.837 34.125 50.391C34.125 51.945 33.483 53.4354 32.3402 54.5342C31.1974 55.6331 29.6474 56.2504 28.0313 56.2504C27.231 56.2504 26.4386 56.0988 25.6993 55.8044C24.9599 55.5099 24.2882 55.0783 23.7223 54.5342C23.1565 53.9901 22.7076 53.3442 22.4014 52.6333C22.0951 51.9224 21.9375 51.1605 21.9375 50.391V24.6098C21.9375 23.9535 21.4013 23.4379 20.7188 23.4379H13.4063Z" fill="white"/>
</svg>
