<svg width="32" height="32" viewBox="0 0 32 32" fill="none" xmlns="http://www.w3.org/2000/svg">
<path d="M13.464 27.099C8.162 27.62 3.579 25.224 3.235 21.74C2.891 18.261 6.912 15.011 12.219 14.485C17.526 13.959 22.104 16.355 22.448 19.839C22.797 23.308 18.771 26.573 13.469 27.094L13.464 27.099ZM12.068 22.958C11.552 23.781 10.459 24.135 9.63 23.76C8.812 23.39 8.573 22.437 9.088 21.635C9.593 20.843 10.656 20.489 11.479 20.838C12.307 21.187 12.573 22.13 12.068 22.958ZM13.76 20.792C13.572 21.105 13.161 21.261 12.843 21.125C12.525 21.005 12.421 20.646 12.603 20.344C12.791 20.042 13.186 19.886 13.499 20.026C13.817 20.146 13.921 20.505 13.739 20.828L13.76 20.792ZM13.995 17.161C11.469 16.505 8.62 17.765 7.521 19.989C6.406 22.26 7.485 24.775 10.031 25.598C12.677 26.452 15.791 25.145 16.875 22.697C17.943 20.306 16.609 17.838 13.995 17.161V17.161ZM24.078 15.531C23.62 15.39 23.318 15.291 23.536 14.713C24.036 13.411 24.099 12.307 23.536 11.505C22.494 10.026 19.651 10.104 16.385 11.469C16.385 11.469 15.364 11.907 15.625 11.104C16.125 9.48401 16.047 8.14001 15.266 7.35901C13.48 5.57801 8.771 7.42201 4.75 11.468C1.745 14.494 0 17.697 0 20.463C0 25.77 6.797 28.989 13.448 28.989C22.162 28.989 27.964 23.921 27.964 19.895C27.964 17.468 25.901 16.093 24.079 15.52L24.078 15.531ZM26.625 8.74501C26.1385 8.20199 25.5171 7.7971 24.8239 7.57128C24.1306 7.34546 23.39 7.30673 22.677 7.45901C22.5409 7.48607 22.4115 7.53984 22.2963 7.61723C22.1811 7.69461 22.0823 7.79406 22.0058 7.90984C21.9293 8.02561 21.8764 8.15541 21.8504 8.29173C21.8243 8.42804 21.8256 8.56817 21.854 8.70401C21.974 9.26101 22.536 9.62601 23.099 9.50601C23.781 9.36501 24.521 9.56301 25.021 10.126C25.521 10.689 25.641 11.428 25.443 12.09C25.4005 12.2213 25.3842 12.3597 25.3953 12.4973C25.4063 12.6349 25.4443 12.769 25.5072 12.8919C25.5701 13.0148 25.6565 13.124 25.7617 13.2135C25.8669 13.3029 25.9886 13.3707 26.12 13.413C26.662 13.574 27.266 13.272 27.443 12.731C27.6673 12.0404 27.706 11.3029 27.5553 10.5925C27.4045 9.88218 27.0695 9.22399 26.584 8.68401L26.625 8.74501ZM29.849 5.81801C27.745 3.47401 24.641 2.58901 21.776 3.19301C21.115 3.32801 20.693 3.97401 20.833 4.63601C20.973 5.29801 21.614 5.71901 22.276 5.57901C23.3087 5.35407 24.3826 5.40616 25.3887 5.73C26.3948 6.05383 27.2974 6.6379 28.005 7.42301C29.484 9.08401 29.911 11.345 29.265 13.308C29.2136 13.4605 29.1931 13.6216 29.2047 13.7821C29.2162 13.9426 29.2596 14.0992 29.3323 14.2427C29.405 14.3862 29.5055 14.5139 29.6281 14.6181C29.7506 14.7224 29.8927 14.8012 30.046 14.85C30.687 15.074 31.369 14.715 31.588 14.069C32.0452 12.6488 32.1213 11.1333 31.8088 9.67443C31.4962 8.21552 30.8059 6.86429 29.807 5.75601L29.849 5.81801Z" fill="white"/>
</svg>
